# xmcd
#
# Track frame offsets:
#	150
#	16883
#	29198
#	42353
#	57000
#	68713
#	81373
#	97648
#	110525
#	123225
#	135270
#	149008
#	161568
#	173970
#	185098
#	197268
#	210033
#	223470
#	237660
#	249948
#
# Disc length: 3517 seconds
#
# Revision: 2
# Processed by: cddbd v1.5.2PL0 Copyright (c) Steve Scherf et al.
# Submitted via: EasyCDDAExtractor 16.0.6.1
#
DISCID=1a0dbb14
DTITLE=The Nightriders - C-002 20 Famous Trucking Songs
DYEAR=1990
DGENRE=Country
TTITLE0=Convoy
TTITLE1=Mean Bear
TTITLE2=Rubber Duck
TTITLE3=Roses For Mama
TTITLE4=Truckin' Man Type Motel
TTITLE5=Crispy Critters
TTITLE6=Won't Be No Country Music
TTITLE7=Old Home Fill Her Up
TTITLE8=Silverton
TTITLE9=Classified
TTITLE10=Big Johnny
TTITLE11=Eighteen Wheeler
TTITLE12=Right There On The Hhighway
TTITLE13=Wagon Dragon
TTITLE14=Give Up The Road
TTITLE15=Country Kings
TTITLE16=Sunset Trail
TTITLE17=Woman From The Highway
TTITLE18=Raiders In The Storm
TTITLE19=My Old Truck
EXTD=
EXTT0=
EXTT1=
EXTT2=
EXTT3=
EXTT4=
EXTT5=
EXTT6=
EXTT7=
EXTT8=
EXTT9=
EXTT10=
EXTT11=
EXTT12=
EXTT13=
EXTT14=
EXTT15=
EXTT16=
EXTT17=
EXTT18=
EXTT19=
PLAYORDER=
